<svg xmlns="http://www.w3.org/2000/svg" width="77" height="75" viewBox="0 0 77 75">
  <g id="Group_8597" data-name="Group 8597" transform="translate(-0.265 0.001)">
    <g id="pointer" transform="translate(14.731 14.945)">
      <g id="Group_8527" data-name="Group 8527" transform="translate(0 0)">
        <g id="Group_8526" data-name="Group 8526">
          <path id="Path_5848" data-name="Path 5848" d="M36.723,10.215A6.289,6.289,0,0,0,30.441,16.5c0,1.406.882,3.525,2.7,6.478.639,1.039,1.273,1.984,1.752,2.674H15.928a6.74,6.74,0,1,0,0,13.481h8.63a3.528,3.528,0,0,1,0,7.055H8.19a4.175,4.175,0,1,0-.073,2.52H24.558a6.047,6.047,0,0,0,0-12.095h-8.63a4.22,4.22,0,1,1,0-8.441h20.8L37.736,26.8c.053-.071,1.3-1.763,2.572-3.828,1.815-2.952,2.7-5.072,2.7-6.478A6.289,6.289,0,0,0,36.723,10.215ZM4.175,48.985A1.655,1.655,0,1,1,5.83,47.33,1.657,1.657,0,0,1,4.175,48.985ZM36.723,23.877c-1.8-2.637-3.762-6.019-3.762-7.38a3.762,3.762,0,1,1,7.524,0C40.486,17.858,38.525,21.24,36.723,23.877Z" transform="translate(0 -10.215)" fill="#fff"/>
        </g>
      </g>
      <g id="Group_8529" data-name="Group 8529" transform="translate(35.449 4.647)">
        <g id="Group_8528" data-name="Group 8528">
          <path id="Path_5849" data-name="Path 5849" d="M423.314,65.545a1.274,1.274,0,1,0,1.273,1.274A1.274,1.274,0,0,0,423.314,65.545Z" transform="translate(-422.04 -65.545)" fill="#fff"/>
        </g>
      </g>
    </g>
    <ellipse id="Ellipse_432" data-name="Ellipse 432" cx="38.5" cy="37.5" rx="38.5" ry="37.5" transform="translate(0.265 -0.001)" fill="#f7941d"/>
    <g id="pointer-2" data-name="pointer" transform="translate(14.731 14.945)">
      <g id="Group_8527-2" data-name="Group 8527" transform="translate(0 0)">
        <g id="Group_8526-2" data-name="Group 8526">
          <path id="Path_5848-2" data-name="Path 5848" d="M36.723,10.215A6.289,6.289,0,0,0,30.441,16.5c0,1.406.882,3.525,2.7,6.478.639,1.039,1.273,1.984,1.752,2.674H15.928a6.74,6.74,0,1,0,0,13.481h8.63a3.528,3.528,0,0,1,0,7.055H8.19a4.175,4.175,0,1,0-.073,2.52H24.558a6.047,6.047,0,0,0,0-12.095h-8.63a4.22,4.22,0,1,1,0-8.441h20.8L37.736,26.8c.053-.071,1.3-1.763,2.572-3.828,1.815-2.952,2.7-5.072,2.7-6.478A6.289,6.289,0,0,0,36.723,10.215ZM4.175,48.985A1.655,1.655,0,1,1,5.83,47.33,1.657,1.657,0,0,1,4.175,48.985ZM36.723,23.877c-1.8-2.637-3.762-6.019-3.762-7.38a3.762,3.762,0,1,1,7.524,0C40.486,17.858,38.525,21.24,36.723,23.877Z" transform="translate(0 -10.215)" fill="#fff"/>
        </g>
      </g>
      <g id="Group_8529-2" data-name="Group 8529" transform="translate(35.449 4.647)">
        <g id="Group_8528-2" data-name="Group 8528">
          <path id="Path_5849-2" data-name="Path 5849" d="M423.314,65.545a1.274,1.274,0,1,0,1.273,1.274A1.274,1.274,0,0,0,423.314,65.545Z" transform="translate(-422.04 -65.545)" fill="#fff"/>
        </g>
      </g>
    </g>
  </g>
</svg>
