<svg xmlns="http://www.w3.org/2000/svg" width="77" height="76" viewBox="0 0 77 76">
  <g id="Group_8598" data-name="Group 8598" transform="translate(0 0)">
    <g id="pointer" transform="translate(14.731 15.641)">
      <g id="Group_8527" data-name="Group 8527" transform="translate(0 0)">
        <g id="Group_8526" data-name="Group 8526">
          <path id="Path_5848" data-name="Path 5848" d="M36.723,10.215A6.289,6.289,0,0,0,30.441,16.5c0,1.406.882,3.525,2.7,6.478.639,1.039,1.273,1.984,1.752,2.674H15.928a6.74,6.74,0,1,0,0,13.481h8.63a3.528,3.528,0,0,1,0,7.055H8.19a4.175,4.175,0,1,0-.073,2.52H24.558a6.047,6.047,0,0,0,0-12.095h-8.63a4.22,4.22,0,1,1,0-8.441h20.8L37.736,26.8c.053-.071,1.3-1.763,2.572-3.828,1.815-2.952,2.7-5.072,2.7-6.478A6.289,6.289,0,0,0,36.723,10.215ZM4.175,48.985A1.655,1.655,0,1,1,5.83,47.33,1.657,1.657,0,0,1,4.175,48.985ZM36.723,23.877c-1.8-2.637-3.762-6.019-3.762-7.38a3.762,3.762,0,1,1,7.524,0C40.486,17.858,38.525,21.24,36.723,23.877Z" transform="translate(0 -10.215)" fill="#fff"/>
        </g>
      </g>
      <g id="Group_8529" data-name="Group 8529" transform="translate(35.449 4.647)">
        <g id="Group_8528" data-name="Group 8528">
          <path id="Path_5849" data-name="Path 5849" d="M423.314,65.545a1.274,1.274,0,1,0,1.273,1.274A1.274,1.274,0,0,0,423.314,65.545Z" transform="translate(-422.04 -65.545)" fill="#fff"/>
        </g>
      </g>
    </g>
    <ellipse id="Ellipse_433" data-name="Ellipse 433" cx="38.5" cy="38" rx="38.5" ry="38" transform="translate(0 0)" fill="#f7941d"/>
    <g id="shipped" transform="translate(10.909 21.367)">
      <g id="Group_8531" data-name="Group 8531" transform="translate(0 0)">
        <g id="Group_8530" data-name="Group 8530" transform="translate(0 0)">
          <path id="Path_5850" data-name="Path 5850" d="M52.285,109.138l-1.456-5.824a.88.88,0,0,0,.7-.861v-.939a3.7,3.7,0,0,0-3.7-3.7H41.2V95.881a1.821,1.821,0,0,0-1.819-1.819H5.575a1.821,1.821,0,0,0-1.819,1.819v15.962a.88.88,0,1,0,1.761,0V95.881a.059.059,0,0,1,.059-.059h33.8a.059.059,0,0,1,.059.059v15.963a.88.88,0,1,0,1.761,0v-1H51.586a2.881,2.881,0,0,1,2.735,2H51.584a.88.88,0,0,0-.88.88V115.6a2.761,2.761,0,0,0,2.758,2.758h1v3.873h-2.3a5.573,5.573,0,0,0-10.537,0H41.2V115.6a.88.88,0,0,0-1.761,0v6.631H21.172a5.573,5.573,0,0,0-10.537,0H5.575a.059.059,0,0,1-.059-.059v-1.937H9.331a.88.88,0,0,0,0-1.761H.88a.88.88,0,0,0,0,1.761H3.756v1.937a1.821,1.821,0,0,0,1.819,1.819H10.33c0,.02,0,.039,0,.059a5.575,5.575,0,0,0,11.15,0c0-.02,0-.039,0-.059H41.316c0,.02,0,.039,0,.059a5.575,5.575,0,0,0,11.15,0c0-.02,0-.039,0-.059H55.34a.88.88,0,0,0,.88-.88v-9.39A4.643,4.643,0,0,0,52.285,109.138ZM41.2,99.579h6.631a1.939,1.939,0,0,1,1.937,1.937v.059H41.2Zm0,9.507v-5.751h7.822l1.438,5.751ZM15.9,127.865a3.815,3.815,0,1,1,3.815-3.815A3.819,3.819,0,0,1,15.9,127.865Zm30.986,0A3.815,3.815,0,1,1,50.7,124.05,3.819,3.819,0,0,1,46.89,127.865ZM54.46,116.6h-1a1,1,0,0,1-1-1v-1h2v2Z" transform="translate(0 -94.062)" fill="#fff"/>
        </g>
      </g>
      <g id="Group_8533" data-name="Group 8533" transform="translate(14.084 28.169)">
        <g id="Group_8532" data-name="Group 8532" transform="translate(0 0)">
          <path id="Path_5851" data-name="Path 5851" d="M130.086,350.6a1.819,1.819,0,1,0,1.819,1.819A1.821,1.821,0,0,0,130.086,350.6Z" transform="translate(-128.267 -350.597)" fill="#fff"/>
        </g>
      </g>
      <g id="Group_8535" data-name="Group 8535" transform="translate(45.07 28.169)">
        <g id="Group_8534" data-name="Group 8534" transform="translate(0 0)">
          <path id="Path_5852" data-name="Path 5852" d="M412.274,350.6a1.819,1.819,0,1,0,1.819,1.819A1.821,1.821,0,0,0,412.274,350.6Z" transform="translate(-410.455 -350.597)" fill="#fff"/>
        </g>
      </g>
      <g id="Group_8537" data-name="Group 8537" transform="translate(22.535 24.413)">
        <g id="Group_8536" data-name="Group 8536" transform="translate(0 0)">
          <path id="Path_5853" data-name="Path 5853" d="M219.253,316.393H206.107a.88.88,0,1,0,0,1.761h13.145a.88.88,0,0,0,0-1.761Z" transform="translate(-205.227 -316.393)" fill="#fff"/>
        </g>
      </g>
      <g id="Group_8539" data-name="Group 8539" transform="translate(1.878 20.657)">
        <g id="Group_8538" data-name="Group 8538">
          <path id="Path_5854" data-name="Path 5854" d="M29.25,282.188H17.982a.88.88,0,0,0,0,1.761H29.25a.88.88,0,0,0,0-1.761Z" transform="translate(-17.102 -282.188)" fill="#fff"/>
        </g>
      </g>
      <g id="Group_8541" data-name="Group 8541" transform="translate(15.962 8.451)">
        <g id="Group_8540" data-name="Group 8540" transform="translate(0 0)">
          <path id="Path_5855" data-name="Path 5855" d="M160.018,171.28a.88.88,0,0,0-1.245,0l-7.828,7.828-4.072-4.072a.88.88,0,0,0-1.245,1.245l4.695,4.695a.88.88,0,0,0,1.245,0l8.451-8.451A.88.88,0,0,0,160.018,171.28Z" transform="translate(-145.37 -171.023)" fill="#fff"/>
        </g>
      </g>
    </g>
  </g>
</svg>
