<svg xmlns="http://www.w3.org/2000/svg" width="77" height="73" viewBox="0 0 77 73">
  <g id="Group_8594" data-name="Group 8594" transform="translate(-0.486 -0.001)">
    <ellipse id="Ellipse_429" data-name="Ellipse 429" cx="38.5" cy="36.5" rx="38.5" ry="36.5" transform="translate(0.486 0.001)" fill="#f7941d"/>
    <g id="like" transform="translate(21 15.254)">
      <g id="Group_8544" data-name="Group 8544" transform="translate(0 7.263)">
        <g id="Group_8543" data-name="Group 8543">
          <path id="Path_5867" data-name="Path 5867" d="M66,109.038a3.59,3.59,0,0,0-2.675-5.986H56.354a23.214,23.214,0,0,0,.985-6.067v-1.2A4.8,4.8,0,0,0,52.55,91h-1.2a1.2,1.2,0,0,0-1.161.907l-.652,2.609c-.914,3.654-3.815,7.685-6.818,8.418a3.6,3.6,0,0,0-3.341-2.276H32.2a1.2,1.2,0,0,0-1.2,1.2V123.4a1.2,1.2,0,0,0,1.2,1.2H39.38a3.6,3.6,0,0,0,3.242-2.047l4.114,1.371a13.141,13.141,0,0,0,4.165.676H60.93a3.593,3.593,0,0,0,3.339-4.915,3.59,3.59,0,0,0,1.73-5.86,3.584,3.584,0,0,0,0-4.789ZM40.578,121.01a1.2,1.2,0,0,1-1.2,1.2H33.394V103.052H39.38a1.2,1.2,0,0,1,1.2,1.2ZM60.93,110.235h2.394a1.2,1.2,0,0,1,0,2.394H60.93a1.2,1.2,0,0,0,0,2.394h2.394a1.2,1.2,0,1,1,0,2.394H60.93a1.2,1.2,0,0,0,0,2.394,1.2,1.2,0,1,1,0,2.394H50.9a10.752,10.752,0,0,1-3.408-.553l-4.521-1.507V105.333a9.647,9.647,0,0,0,5.375-3.493A17.469,17.469,0,0,0,51.862,95.1l.425-1.7h.263a2.4,2.4,0,0,1,2.394,2.394v1.2a18.945,18.945,0,0,1-1.146,6.067H51.352a1.2,1.2,0,1,0,0,2.394H63.324a1.2,1.2,0,1,1,0,2.394H60.93a1.2,1.2,0,0,0,0,2.394Z" transform="translate(-31 -91)" fill="#fff"/>
        </g>
      </g>
      <g id="Group_8546" data-name="Group 8546" transform="translate(4.827 33.786)">
        <g id="Group_8545" data-name="Group 8545" transform="translate(0 0)">
          <ellipse id="Ellipse_428" data-name="Ellipse 428" cx="1.126" cy="1.126" rx="1.126" ry="1.126" fill="#fff"/>
        </g>
      </g>
      <g id="Group_8548" data-name="Group 8548" transform="translate(21.55 0)">
        <g id="Group_8547" data-name="Group 8547">
          <path id="Path_5868" data-name="Path 5868" d="M302.2,0A1.2,1.2,0,0,0,301,1.2V3.671a1.2,1.2,0,0,0,2.394,0V1.2A1.2,1.2,0,0,0,302.2,0Z" transform="translate(-301)" fill="#fff"/>
        </g>
      </g>
      <g id="Group_8550" data-name="Group 8550" transform="translate(13.931 3.236)">
        <g id="Group_8549" data-name="Group 8549">
          <path id="Path_5869" data-name="Path 5869" d="M209.277,42.585l-1.693-1.693a1.2,1.2,0,0,0-1.693,1.693l1.693,1.693a1.2,1.2,0,1,0,1.693-1.693Z" transform="translate(-205.541 -40.542)" fill="#fff"/>
        </g>
      </g>
      <g id="Group_8552" data-name="Group 8552" transform="translate(27.475 3.236)">
        <g id="Group_8551" data-name="Group 8551">
          <path id="Path_5870" data-name="Path 5870" d="M378.983,40.892a1.2,1.2,0,0,0-1.693,0L375.6,42.585a1.2,1.2,0,0,0,1.693,1.693l1.693-1.693A1.2,1.2,0,0,0,378.983,40.892Z" transform="translate(-375.247 -40.542)" fill="#fff"/>
        </g>
      </g>
    </g>
  </g>
</svg>
