<svg id="Group_8592" data-name="Group 8592" xmlns="http://www.w3.org/2000/svg" width="77" height="77" viewBox="0 0 77 77">
  <circle id="Ellipse_5" data-name="Ellipse 5" cx="38.5" cy="38.5" r="38.5" fill="#f7941d"/>
  <g id="procedure_1_" data-name="procedure (1)" transform="translate(24 19)">
    <g id="Group_8542" data-name="Group 8542" transform="translate(0 0)">
      <path id="Path_5856" data-name="Path 5856" d="M69.885,28.793a.574.574,0,0,0,.574-.574V1.293a.145.145,0,0,1,.145-.145H87.566a.574.574,0,0,0,0-1.148H70.6a1.3,1.3,0,0,0-1.294,1.293V28.219A.574.574,0,0,0,69.885,28.793Z" transform="translate(-69.311 0)" fill="#fff"/>
      <path id="Path_5857" data-name="Path 5857" d="M96.67,0H90.235a.574.574,0,1,0,0,1.148H96.67a.145.145,0,0,1,.145.145V31.652H91.871a1.3,1.3,0,0,0-1.294,1.294v5.2H70.606A.145.145,0,0,1,70.46,38V30.871a.574.574,0,0,0-1.148,0V38a1.3,1.3,0,0,0,1.294,1.293H91.152a.574.574,0,0,0,.414-.176L97.8,32.624a.574.574,0,0,0,.16-.4V1.293A1.3,1.3,0,0,0,96.67,0ZM94.033,34.89l-2.307,2.4V32.945a.145.145,0,0,1,.145-.145h4.17Z" transform="translate(-69.312 0)" fill="#fff"/>
      <path id="Path_5858" data-name="Path 5858" d="M126.605,92.78a.574.574,0,0,0-.806.1l-1.7,2.185-.688-.768a.574.574,0,1,0-.856.766l1.146,1.28a.574.574,0,0,0,.428.191h.02a.575.575,0,0,0,.433-.221l2.126-2.727A.574.574,0,0,0,126.605,92.78Z" transform="translate(-118.331 -85.548)" fill="#fff"/>
      <path id="Path_5859" data-name="Path 5859" d="M219.369,93.062H206.417a.574.574,0,0,0,0,1.148h12.952a.574.574,0,1,0,0-1.148Z" transform="translate(-195.366 -85.921)" fill="#fff"/>
      <path id="Path_5860" data-name="Path 5860" d="M219.369,127.788H206.417a.574.574,0,1,0,0,1.148h12.952a.574.574,0,1,0,0-1.148Z" transform="translate(-195.366 -117.982)" fill="#fff"/>
      <path id="Path_5861" data-name="Path 5861" d="M219.369,285.272H206.417a.574.574,0,0,0,0,1.148h12.952a.574.574,0,1,0,0-1.148Z" transform="translate(-195.366 -263.381)" fill="#fff"/>
      <path id="Path_5862" data-name="Path 5862" d="M219.369,320H206.417a.574.574,0,1,0,0,1.148h12.952a.574.574,0,1,0,0-1.148Z" transform="translate(-195.366 -295.442)" fill="#fff"/>
      <path id="Path_5863" data-name="Path 5863" d="M126.605,188.886a.574.574,0,0,0-.806.1l-1.7,2.185-.688-.768a.574.574,0,0,0-.856.766l1.146,1.28a.574.574,0,0,0,.428.191h.02a.574.574,0,0,0,.433-.221l2.126-2.727A.574.574,0,0,0,126.605,188.886Z" transform="translate(-118.331 -174.279)" fill="#fff"/>
      <path id="Path_5864" data-name="Path 5864" d="M219.369,189.167H206.417a.574.574,0,0,0,0,1.148h12.952a.574.574,0,1,0,0-1.148Z" transform="translate(-195.366 -174.651)" fill="#fff"/>
      <path id="Path_5865" data-name="Path 5865" d="M219.369,223.893H206.417a.574.574,0,0,0,0,1.148h12.952a.574.574,0,0,0,0-1.148Z" transform="translate(-195.366 -206.712)" fill="#fff"/>
      <path id="Path_5866" data-name="Path 5866" d="M126,285.436a.574.574,0,0,0-.812.008l-.9.915-.9-.915a.574.574,0,1,0-.82.8l.913.93-.913.93a.574.574,0,1,0,.82.8l.9-.915.9.915a.574.574,0,1,0,.82-.8l-.913-.93.913-.93A.574.574,0,0,0,126,285.436Z" transform="translate(-118.332 -263.381)" fill="#fff"/>
    </g>
  </g>
</svg>
