<svg xmlns="http://www.w3.org/2000/svg" width="53.752" height="53.754" viewBox="0 0 53.752 53.754">
  <g id="Group_8746" data-name="Group 8746" transform="translate(95.996 0.002)">
    <g id="lanuage_icon" data-name="lanuage icon" transform="translate(-95.996 -0.002)">
      <path id="Subtraction_5" data-name="Subtraction 5" d="M21726.5,17253.752a26.791,26.791,0,1,1,10.455-2.113A26.666,26.666,0,0,1,21726.5,17253.752Zm0-39.619a12.759,12.759,0,1,0,12.76,12.758A12.772,12.772,0,0,0,21726.5,17214.133Zm.426,24.645v-5.1a30.672,30.672,0,0,0,4.7-.432l1.055-.186c-1.242,3.357-3.393,5.494-5.754,5.717Zm-.852,0h0c-2.361-.23-4.512-2.365-5.752-5.717l1.049.184a30.638,30.638,0,0,0,4.705.434v5.1Zm4.17-.588h0a11.766,11.766,0,0,0,3.381-5.293l3.479-.6A11.864,11.864,0,0,1,21730.244,17238.189Zm-7.492,0a11.862,11.862,0,0,1-6.854-5.893l3.479.6a11.722,11.722,0,0,0,3.375,5.293Zm4.174-5.369v-5.5h6.8a18.149,18.149,0,0,1-.736,4.832l-1.5.258a29.015,29.015,0,0,1-4.557.414Zm-.852,0h0a29.058,29.058,0,0,1-4.557-.414l-1.5-.258a18.1,18.1,0,0,1-.738-4.832h6.8v5.5Zm7.83-.83,0,0a19.05,19.05,0,0,0,.664-4.672h3.826a11.871,11.871,0,0,1-.861,4.047l-3.629.627Zm-14.812,0h0l-3.623-.627a11.631,11.631,0,0,1-.861-4.047h3.82a19.09,19.09,0,0,0,.664,4.672Zm19.3-5.525h-3.826a18.942,18.942,0,0,0-.666-4.668l3.631.629a11.788,11.788,0,0,1,.861,4.037Zm-4.674,0h-6.8v-5.5a30.01,30.01,0,0,1,4.559.414l1.5.262a18.1,18.1,0,0,1,.736,4.824Zm-7.648,0h-6.8a18.075,18.075,0,0,1,.738-4.826l1.5-.262a30.147,30.147,0,0,1,4.559-.414v5.5Zm-7.648,0h-3.82a11.6,11.6,0,0,1,.861-4.039l3.625-.629a19.087,19.087,0,0,0-.666,4.666Zm18.678-4.979h0l-3.477-.6a11.741,11.741,0,0,0-3.385-5.3,11.893,11.893,0,0,1,6.861,5.895Zm-21.205,0,0,0a11.9,11.9,0,0,1,6.855-5.895,11.741,11.741,0,0,0-3.379,5.3l-3.477.6Zm16.783-.764h0l-1.053-.18a30.441,30.441,0,0,0-4.7-.432v-5.1c2.365.229,4.516,2.361,5.754,5.709Zm-12.361,0,0,0c1.24-3.352,3.391-5.486,5.752-5.715v5.105a30.671,30.671,0,0,0-4.705.432l-1.047.18Z" transform="translate(-21699.625 -17199.998)" fill="#f7941d"/>
    </g>
  </g>
</svg>
