<svg xmlns="http://www.w3.org/2000/svg" width="31.598" height="31.598" viewBox="0 0 31.598 31.598">
  <g id="history" transform="translate(0)">
    <path id="Path_5857" data-name="Path 5857" d="M28.349,6.221h1.38V4.371l-4.237,0-.547,4.268,1.836.235.181-1.413A13.929,13.929,0,0,1,15.821,29.746h-.01a13.946,13.946,0,1,1,5.165-26.89l.688-1.718A15.792,15.792,0,1,0,15.809,31.6h.012A15.785,15.785,0,0,0,28.349,6.221Z" transform="translate(0)" fill="#f7941d"/>
    <path id="Path_5858" data-name="Path 5858" d="M109.627,100.059a9.626,9.626,0,1,0,9.627,9.626A9.638,9.638,0,0,0,109.627,100.059Zm3.968,10.552H108.7v-4.893h1.851v3.042H113.6Z" transform="translate(-93.829 -93.884)" fill="#f7941d"/>
  </g>
</svg>
