<svg xmlns="http://www.w3.org/2000/svg" width="39.202" height="31.361" viewBox="0 0 39.202 31.361">
  <path id="Icon_awesome-user-lock" data-name="Icon awesome-user-lock" d="M13.721,15.681A7.84,7.84,0,1,0,5.88,7.84,7.84,7.84,0,0,0,13.721,15.681ZM19.6,19.6a3.864,3.864,0,0,1,.5-1.868,8.383,8.383,0,0,0-.888-.092H18.186a10.663,10.663,0,0,1-8.931,0H8.232A8.234,8.234,0,0,0,0,25.871v2.55a2.94,2.94,0,0,0,2.94,2.94H20.146A3.892,3.892,0,0,1,19.6,29.4Zm17.641-1.96h-1.96v-4.9a4.9,4.9,0,1,0-9.8,0v4.9h-1.96a1.96,1.96,0,0,0-1.96,1.96v9.8a1.96,1.96,0,0,0,1.96,1.96H37.242A1.96,1.96,0,0,0,39.2,29.4V19.6A1.96,1.96,0,0,0,37.242,17.641Zm-6.86,8.82a1.96,1.96,0,1,1,1.96-1.96A1.96,1.96,0,0,1,30.381,26.461Zm1.96-8.82h-3.92v-4.9a1.96,1.96,0,0,1,3.92,0Z" fill="#f7941d"/>
</svg>
