<svg xmlns="http://www.w3.org/2000/svg" width="31.357" height="31.361" viewBox="0 0 31.357 31.361">
  <path id="Path_4650" data-name="Path 4650" d="M1280.392-102.257l.971-1.972a3.3,3.3,0,0,1,2.954-1.84h1.983a3.3,3.3,0,0,1,2.954,1.84l.97,1.972,2.082-.709a3.286,3.286,0,0,1,3.387.789c.561.556,1.2,1.2,1.2,1.2a1.458,1.458,0,0,1,0,2.068,1.466,1.466,0,0,1-2.071,0l-1.193-1.2a.369.369,0,0,0-.38-.088c-1.059.361-2.58.878-3.013,1.027a1.8,1.8,0,0,1-1.269-.04l-.082-.036a1.3,1.3,0,0,1-.3-.18,1.763,1.763,0,0,1-.55-.654c-.2-.414-.912-1.853-1.4-2.857a.374.374,0,0,0-.333-.206h-1.983a.36.36,0,0,0-.328.206c-.5,1-1.2,2.443-1.41,2.857a1.8,1.8,0,0,1-.924.867l-.077.031a1.465,1.465,0,0,1-.368.091,1.789,1.789,0,0,1-.824-.078l-3.018-1.027a.369.369,0,0,0-.38.088l-1.4,1.4a.367.367,0,0,0-.088.38c.357,1.059.877,2.577,1.024,3.015a1.79,1.79,0,0,1-.041,1.268v0a1.426,1.426,0,0,1-.286.471,1.794,1.794,0,0,1-.586.456c-.409.2-1.848.912-2.854,1.406a.364.364,0,0,0-.2.331V-89.4a.364.364,0,0,0,.2.331c1.007.494,2.446,1.2,2.854,1.406a1.812,1.812,0,0,1,.872.923l.029.08a1.346,1.346,0,0,1,.088.368,1.743,1.743,0,0,1-.076.826c-.146.437-.667,1.956-1.024,3.014a.367.367,0,0,0,.088.38l1.4,1.4a.369.369,0,0,0,.38.088l3.018-1.027a1.788,1.788,0,0,1,1.263.04h.006a1.442,1.442,0,0,1,.468.287,1.741,1.741,0,0,1,.456.582c.2.415.912,1.853,1.41,2.857a.36.36,0,0,0,.328.206h1.983a.374.374,0,0,0,.333-.206c.492-1,1.2-2.443,1.4-2.857a1.805,1.805,0,0,1,.924-.867l.077-.031a1.463,1.463,0,0,1,.368-.091,1.822,1.822,0,0,1,.83.078c.433.149,1.954.666,3.013,1.027a.369.369,0,0,0,.38-.088l1.4-1.4a.368.368,0,0,0,.088-.38c-.357-1.059-.877-2.577-1.023-3.014a1.787,1.787,0,0,1,.04-1.268v0a1.527,1.527,0,0,1,.287-.471,1.79,1.79,0,0,1,.585-.456c.415-.2,1.854-.912,2.854-1.406a.363.363,0,0,0,.2-.331v-1.981a.364.364,0,0,0-.2-.331l-3.071-1.51a1.462,1.462,0,0,1-.667-1.958,1.465,1.465,0,0,1,1.96-.667l3.071,1.51a3.3,3.3,0,0,1,1.836,2.955V-89.4a3.3,3.3,0,0,1-1.836,2.955l-1.971.97.708,2.081A3.293,3.293,0,0,1,1297.1-80c-.433.434-.965.967-1.4,1.4a3.286,3.286,0,0,1-3.387.789l-2.082-.709-.97,1.972a3.3,3.3,0,0,1-2.954,1.84h-1.983a3.3,3.3,0,0,1-2.954-1.84l-.971-1.972-2.082.709a3.286,3.286,0,0,1-3.387-.789c-.438-.434-.971-.967-1.4-1.4a3.3,3.3,0,0,1-.789-3.391l.708-2.081-1.971-.97a3.3,3.3,0,0,1-1.837-2.955v-1.981a3.3,3.3,0,0,1,1.837-2.955l1.971-.97-.708-2.081a3.294,3.294,0,0,1,.789-3.391c.433-.434.966-.967,1.4-1.4a3.286,3.286,0,0,1,3.387-.789Zm3.86,14.16a2.5,2.5,0,0,1-1.381-1.638,2.524,2.524,0,0,1,1.785-3.092,2.52,2.52,0,0,1,3.088,1.785,2.484,2.484,0,0,1-.146,1.713,1.46,1.46,0,0,0,.714,1.942,1.464,1.464,0,0,0,1.942-.711,5.442,5.442,0,0,0,.315-3.7,5.451,5.451,0,0,0-6.674-3.853,5.452,5.452,0,0,0-3.849,6.674,5.418,5.418,0,0,0,2.977,3.535,1.457,1.457,0,0,0,1.936-.713A1.462,1.462,0,0,0,1284.253-88.1Z" transform="translate(-1269.63 106.069)" fill="#f7941d"/>
</svg>
